<?xml version="1.0" encoding="UTF-8"?>
<svg width="17px" height="24px" viewBox="0 0 17 24" version="1.1" xmlns="http://www.w3.org/2000/svg" xmlns:xlink="http://www.w3.org/1999/xlink">
    <title>gab</title>
    <g id="Page-1" stroke="none" stroke-width="1" fill="none" fill-rule="evenodd">
        <g id="gab" transform="translate(0.000000, 0.200000)" fill="#21CF7A" fill-rule="nonzero">
            <path d="M13.7523997,0.4 L11.3523997,0.4 L11.3523997,1.1 L11.3523997,1.8 L10.9523997,1.5 C10.1523997,0.6 8.95239974,1.13686838e-13 7.65239974,1.13686838e-13 C7.45239974,1.13686838e-13 7.25239974,1.13686838e-13 7.25239974,1.13686838e-13 C7.15239974,1.13686838e-13 6.95239974,1.13686838e-13 6.75239974,1.13686838e-13 C1.15239974,0.3 -1.94760026,7.2 1.35239974,12.1 C3.65239974,15.5 8.45239974,16.2 11.0523997,13.6 L11.3523997,13.3 L11.3523997,14 C11.3523997,15 11.2523997,15.5 10.9523997,16.2 C9.95239974,18.6 6.85239974,19.2 4.15239974,17.5 C3.95239974,17.4 3.75239974,17.3 3.75239974,17.3 C3.65239974,17.4 1.85239974,20.8 1.85239974,20.9 C1.85239974,21 2.35239974,21.3 2.65239974,21.5 C4.85239974,22.9 8.25239974,23.2 10.9523997,22.3 C13.6523997,21.4 15.4523997,19.1 15.9523997,15.9 C16.1523997,14.8 16.1523997,15.1 16.1523997,7.5 L16.1523997,0.4 L13.7523997,0.4 Z M9.65239974,10.4 C7.45239974,11.6 4.75239974,10 4.75239974,7.5 C4.75239974,5.4 6.95239974,3.8 8.95239974,4.4 C11.7523997,5.2 12.2523997,8.9 9.65239974,10.4 Z" id="Shape"></path>
        </g>
    </g>
</svg>